<?xml version="1.0" encoding="UTF-8" standalone="no"?>
<!DOCTYPE svg PUBLIC "-//W3C//DTD SVG 1.1//EN" "http://www.w3.org/Graphics/SVG/1.1/DTD/svg11.dtd">
<svg width="100%" height="100%" viewBox="0 0 231 48" version="1.1" xmlns="http://www.w3.org/2000/svg" xmlns:xlink="http://www.w3.org/1999/xlink" xml:space="preserve" xmlns:serif="http://www.serif.com/" style="fill-rule:evenodd;clip-rule:evenodd;stroke-linejoin:round;stroke-miterlimit:2;">
    <g transform="matrix(0.053613,0,0,0.053613,115.364701,24)">
        <g transform="matrix(1,0,0,1,-2156.835,-415.9)">
            <g id="Ebene_1-2">
                <path d="M1153.24,506.08C1164.77,547.8 1196.06,568.65 1247.1,568.65C1279.93,568.65 1304.78,557.56 1321.65,535.37L1390.88,575.31C1358.03,622.8 1309.67,646.53 1245.77,646.53C1190.74,646.53 1146.59,629.89 1113.31,596.61C1080.03,563.33 1063.39,521.39 1063.39,470.8C1063.39,420.21 1079.8,378.84 1112.65,345.33C1145.48,311.83 1187.64,295.07 1239.12,295.07C1287.93,295.07 1328.2,311.94 1359.93,345.66C1391.65,379.39 1407.52,421.11 1407.52,470.8C1407.52,481.9 1406.41,493.66 1404.19,506.08L1153.24,506.08ZM1151.91,439.52L1321.65,439.52C1316.76,416.89 1306.67,400.03 1291.36,388.93C1276.05,377.84 1258.63,372.29 1239.11,372.29C1216.03,372.29 1196.95,378.18 1181.86,389.93C1166.77,401.69 1156.78,418.22 1151.91,439.52Z" style="fill:white;fill-rule:nonzero;"/>
                <g>
                    <path d="M1623.18,646.53C1573.03,646.53 1531.21,629.67 1497.71,595.94C1464.2,562.22 1447.45,520.5 1447.45,470.8C1447.45,421.1 1464.2,379.39 1497.71,345.66C1531.21,311.94 1573.03,295.07 1623.18,295.07C1655.57,295.07 1685.08,302.84 1711.71,318.37C1738.34,333.91 1758.52,354.76 1772.28,380.94L1698.39,424.21C1691.73,410.46 1681.63,399.58 1668.1,391.59C1654.56,383.6 1639.36,379.61 1622.5,379.61C1596.76,379.61 1575.46,388.16 1558.6,405.24C1541.73,422.33 1533.31,444.18 1533.31,470.81C1533.31,497.44 1541.73,518.63 1558.6,535.71C1575.46,552.8 1596.76,561.34 1622.5,561.34C1639.81,561.34 1655.22,557.46 1668.76,549.69C1682.29,541.93 1692.39,531.17 1699.05,517.41L1773.6,560.01C1758.96,586.2 1738.32,607.17 1711.7,622.91C1685.07,638.66 1655.56,646.54 1623.17,646.54L1623.18,646.53Z" style="fill:white;fill-rule:nonzero;"/>
                    <path d="M1907.41,361.64C1915.4,340.34 1928.6,324.36 1947.02,313.71C1965.43,303.06 1985.96,297.73 2008.59,297.73L2008.59,393.58C1982.4,390.48 1959,395.81 1938.36,409.56C1917.73,423.32 1907.41,446.17 1907.41,478.12L1907.41,637.21L1821.54,637.21L1821.54,304.39L1907.41,304.39L1907.41,361.64Z" style="fill:white;fill-rule:nonzero;"/>
                    <path d="M2278.16,304.39L2364.03,304.39L2364.03,637.21L2278.16,637.21L2278.16,599.93C2257.3,631 2224.24,646.53 2178.98,646.53C2142.59,646.53 2112.52,634.33 2088.79,609.92C2065.04,585.52 2053.18,551.79 2053.18,508.74L2053.18,304.39L2139.05,304.39L2139.05,498.09C2139.05,520.29 2145.04,537.26 2157.02,549.01C2169,560.77 2184.98,566.65 2204.95,566.65C2227.13,566.65 2244.89,559.77 2258.2,546.02C2271.51,532.27 2278.17,511.64 2278.17,484.11L2278.17,304.39L2278.16,304.39Z" style="fill:white;fill-rule:nonzero;"/>
                    <path d="M2810.67,295.07C2848.83,295.07 2879.34,307.5 2902.2,332.35C2925.05,357.21 2936.48,390.49 2936.48,432.2L2936.48,637.22L2850.61,637.22L2850.61,438.19C2850.61,418.22 2845.72,402.69 2835.97,391.6C2826.2,380.51 2812.44,374.96 2794.7,374.96C2775.17,374.96 2759.97,381.4 2749.1,394.26C2738.22,407.14 2732.79,425.77 2732.79,450.17L2732.79,637.22L2646.92,637.22L2646.92,438.19C2646.92,418.22 2642.03,402.69 2632.28,391.6C2622.51,380.51 2608.75,374.96 2591.01,374.96C2571.93,374.96 2556.73,381.4 2545.41,394.26C2534.09,407.14 2528.44,425.77 2528.44,450.17L2528.44,637.22L2442.57,637.22L2442.57,304.4L2528.44,304.4L2528.44,339.68C2548.41,309.95 2579.25,295.08 2620.96,295.08C2662.67,295.08 2691.95,311.06 2711.49,343.01C2733.67,311.06 2766.74,295.08 2810.67,295.08L2810.67,295.07Z" style="fill:white;fill-rule:nonzero;"/>
                    <path d="M3082.25,506.08C3093.78,547.8 3125.07,568.65 3176.11,568.65C3208.94,568.65 3233.79,557.56 3250.66,535.37L3319.89,575.31C3287.04,622.8 3238.68,646.53 3174.78,646.53C3119.75,646.53 3075.6,629.89 3042.32,596.61C3009.04,563.33 2992.4,521.39 2992.4,470.8C2992.4,420.21 3008.81,378.84 3041.66,345.33C3074.49,311.83 3116.65,295.07 3168.13,295.07C3216.94,295.07 3257.21,311.94 3288.94,345.66C3320.66,379.39 3336.53,421.11 3336.53,470.8C3336.53,481.9 3335.42,493.66 3333.2,506.08L3082.25,506.08ZM3080.92,439.52L3250.66,439.52C3245.77,416.89 3235.68,400.03 3220.37,388.93C3205.06,377.84 3187.64,372.29 3168.12,372.29C3145.04,372.29 3125.96,378.18 3110.87,389.93C3095.78,401.69 3085.79,418.22 3080.92,439.52Z" style="fill:white;fill-rule:nonzero;"/>
                    <path d="M3646.04,171.26L3731.91,171.26L3731.91,637.21L3646.04,637.21L3646.04,597.94C3620.75,630.34 3584.8,646.53 3538.21,646.53C3491.62,646.53 3455.11,629.56 3423.39,595.61C3391.66,561.66 3375.8,520.06 3375.8,470.8C3375.8,421.54 3391.66,379.94 3423.39,345.99C3455.11,312.04 3493.39,295.07 3538.21,295.07C3583.03,295.07 3620.75,311.27 3646.04,343.66L3646.04,171.26ZM3487.95,538.37C3505.48,555.91 3527.56,564.66 3554.18,564.66C3580.8,564.66 3602.77,555.9 3620.08,538.37C3637.39,520.84 3646.04,498.33 3646.04,470.81C3646.04,443.29 3637.39,420.78 3620.08,403.25C3602.77,385.72 3580.81,376.96 3554.18,376.96C3527.55,376.96 3505.47,385.73 3487.95,403.25C3470.43,420.77 3461.66,443.3 3461.66,470.81C3461.66,498.32 3470.42,520.85 3487.95,538.37Z" style="fill:white;fill-rule:nonzero;"/>
                    <path d="M3853.05,264.45C3838.84,264.45 3826.53,259.24 3816.11,248.81C3805.68,238.39 3800.47,226.07 3800.47,211.87C3800.47,197.67 3805.68,185.24 3816.11,174.59C3826.53,163.94 3838.85,158.61 3853.05,158.61C3867.25,158.61 3880.23,163.94 3890.66,174.59C3901.08,185.24 3906.3,197.67 3906.3,211.87C3906.3,226.07 3901.08,238.39 3890.66,248.81C3880.23,259.24 3867.7,264.45 3853.05,264.45ZM3810.45,637.21L3810.45,304.39L3896.32,304.39L3896.32,637.21L3810.45,637.21Z" style="fill:white;fill-rule:nonzero;"/>
                    <path d="M4227.8,304.39L4313.67,304.39L4313.67,637.21L4227.8,637.21L4227.8,597.94C4202.06,630.34 4165.89,646.53 4119.3,646.53C4072.71,646.53 4036.86,629.56 4005.14,595.61C3973.41,561.66 3957.55,520.06 3957.55,470.8C3957.55,421.54 3973.41,379.94 4005.14,345.99C4036.86,312.04 4074.92,295.07 4119.3,295.07C4165.89,295.07 4202.06,311.27 4227.8,343.66L4227.8,304.39ZM4069.38,538.37C4086.69,555.91 4108.65,564.66 4135.28,564.66C4161.91,564.66 4183.98,555.9 4201.51,538.37C4219.04,520.84 4227.8,498.33 4227.8,470.81C4227.8,443.29 4219.03,420.78 4201.51,403.25C4183.97,385.72 4161.9,376.96 4135.28,376.96C4108.66,376.96 4086.69,385.73 4069.38,403.25C4052.07,420.79 4043.42,443.3 4043.42,470.81C4043.42,498.32 4052.07,520.85 4069.38,538.37Z" style="fill:white;fill-rule:nonzero;"/>
                </g>
                <path d="M415.9,0C186.2,0 0,186.2 0,415.9C0,645.6 186.2,831.8 415.9,831.8C645.6,831.8 831.8,645.6 831.8,415.9C831.8,186.2 645.59,0 415.9,0ZM374.37,570.16C374.37,585.94 365.99,600.53 352.37,608.48L299.94,639.1C276.27,652.92 246.54,635.85 246.54,608.44L246.54,223.3C246.54,189.02 283.75,167.68 313.34,185L352.42,207.87C366.02,215.83 374.38,230.41 374.38,246.17L374.38,570.15L374.37,570.16ZM500,645.02L420.73,579.74C415.32,575.29 412.19,568.65 412.19,561.64L412.19,479.67C412.19,461.66 431.65,450.38 447.28,459.32L519.34,500.53C525.01,503.77 529.07,509.23 530.54,515.59L553.44,614.38C553.44,641.8 523.67,658.87 500,645.02ZM645.19,441.16L587.98,473.36C575.98,480.12 561.31,480.1 549.32,473.33L429.96,405.91C417.56,398.91 409.92,385.76 409.96,371.52L410.15,310.2C410.24,279.85 443.2,261.02 469.39,276.36L645.71,379.59C669.36,393.44 669.07,427.72 645.19,441.17L645.19,441.16Z" style="fill:rgb(70,95,255);fill-rule:nonzero;"/>
            </g>
        </g>
    </g>
</svg>
