<?xml version="1.0" encoding="UTF-8"?> <svg xmlns="http://www.w3.org/2000/svg" id="Ebene_2" viewBox="0 0 4313.67 831.8"><g id="Ebene_1-2"><path d="M1153.24,506.08c11.53,41.72,42.82,62.57,93.86,62.57,32.83,0,57.68-11.09,74.55-33.28l69.23,39.94c-32.85,47.49-81.21,71.22-145.11,71.22-55.03,0-99.18-16.64-132.46-49.92-33.28-33.28-49.92-75.22-49.92-125.81s16.41-91.96,49.26-125.47c32.83-33.5,74.99-50.26,126.47-50.26,48.81,0,89.08,16.87,120.81,50.59,31.72,33.73,47.59,75.45,47.59,125.14,0,11.1-1.11,22.86-3.33,35.28h-250.95ZM1151.91,439.52h169.74c-4.89-22.63-14.98-39.49-30.29-50.59-15.31-11.09-32.73-16.64-52.25-16.64-23.08,0-42.16,5.89-57.25,17.64-15.09,11.76-25.08,28.29-29.95,49.59Z" style="fill:#262626;"></path><path d="M1623.18,646.53c-50.15,0-91.97-16.86-125.47-50.59-33.51-33.72-50.26-75.44-50.26-125.14s16.75-91.41,50.26-125.14c33.5-33.72,75.32-50.59,125.47-50.59,32.39,0,61.9,7.77,88.53,23.3,26.63,15.54,46.81,36.39,60.57,62.57l-73.89,43.27c-6.66-13.75-16.76-24.63-30.29-32.62-13.54-7.99-28.74-11.98-45.6-11.98-25.74,0-47.04,8.55-63.9,25.63-16.87,17.09-25.29,38.94-25.29,65.57s8.42,47.82,25.29,64.9c16.86,17.09,38.16,25.63,63.9,25.63,17.31,0,32.72-3.88,46.26-11.65,13.53-7.76,23.63-18.52,30.29-32.28l74.55,42.6c-14.64,26.19-35.28,47.16-61.9,62.9-26.63,15.75-56.14,23.63-88.53,23.63Z" style="fill:#262626;"></path><path d="M1907.41,361.64c7.99-21.3,21.19-37.28,39.61-47.93,18.41-10.65,38.94-15.98,61.57-15.98v95.85c-26.19-3.1-49.59,2.23-70.23,15.98-20.63,13.76-30.95,36.61-30.95,68.56v159.09h-85.87v-332.82h85.87v57.25Z" style="fill:#262626;"></path><path d="M2278.16,304.39h85.87v332.82h-85.87v-37.28c-20.86,31.07-53.92,46.6-99.18,46.6-36.39,0-66.46-12.2-90.19-36.61-23.75-24.4-35.61-58.13-35.61-101.18v-204.35h85.87v193.7c0,22.2,5.99,39.17,17.97,50.92,11.98,11.76,27.96,17.64,47.93,17.64,22.18,0,39.94-6.88,53.25-20.63,13.31-13.75,19.97-34.38,19.97-61.91v-179.72Z" style="fill:#262626;"></path><path d="M2810.67,295.07c38.16,0,68.67,12.43,91.53,37.28,22.85,24.86,34.28,58.14,34.28,99.85v205.02h-85.87v-199.03c0-19.97-4.89-35.5-14.64-46.59-9.77-11.09-23.53-16.64-41.27-16.64-19.53,0-34.73,6.44-45.6,19.3-10.88,12.88-16.31,31.51-16.31,55.91v187.05h-85.87v-199.03c0-19.97-4.89-35.5-14.64-46.59-9.77-11.09-23.53-16.64-41.27-16.64-19.08,0-34.28,6.44-45.6,19.3-11.32,12.88-16.97,31.51-16.97,55.91v187.05h-85.87v-332.82h85.87v35.28c19.97-29.73,50.81-44.6,92.52-44.6s70.99,15.98,90.53,47.93c22.18-31.95,55.25-47.93,99.18-47.93Z" style="fill:#262626;"></path><path d="M3082.25,506.08c11.53,41.72,42.82,62.57,93.86,62.57,32.83,0,57.68-11.09,74.55-33.28l69.23,39.94c-32.85,47.49-81.21,71.22-145.11,71.22-55.03,0-99.18-16.64-132.46-49.92-33.28-33.28-49.92-75.22-49.92-125.81s16.41-91.96,49.26-125.47c32.83-33.5,74.99-50.26,126.47-50.26,48.81,0,89.08,16.87,120.81,50.59,31.72,33.73,47.59,75.45,47.59,125.14,0,11.1-1.11,22.86-3.33,35.28h-250.95ZM3080.92,439.52h169.74c-4.89-22.63-14.98-39.49-30.29-50.59-15.31-11.09-32.73-16.64-52.25-16.64-23.08,0-42.16,5.89-57.25,17.64-15.09,11.76-25.08,28.29-29.95,49.59Z" style="fill:#262626;"></path><path d="M3646.04,171.26h85.87v465.95h-85.87v-39.27c-25.29,32.4-61.24,48.59-107.83,48.59s-83.1-16.97-114.82-50.92c-31.73-33.95-47.59-75.55-47.59-124.81s15.86-90.86,47.59-124.81c31.72-33.95,70-50.92,114.82-50.92s82.54,16.2,107.83,48.59v-172.4ZM3487.95,538.37c17.53,17.54,39.61,26.29,66.23,26.29s48.59-8.76,65.9-26.29c17.31-17.53,25.96-40.04,25.96-67.56s-8.65-50.03-25.96-67.56c-17.31-17.53-39.27-26.29-65.9-26.29s-48.71,8.77-66.23,26.29-26.29,40.05-26.29,67.56,8.76,50.04,26.29,67.56Z" style="fill:#262626;"></path><path d="M3853.05,264.45c-14.21,0-26.52-5.21-36.94-15.64-10.43-10.42-15.64-22.74-15.64-36.94s5.21-26.63,15.64-37.28c10.42-10.65,22.74-15.98,36.94-15.98s27.18,5.33,37.61,15.98c10.42,10.65,15.64,23.08,15.64,37.28s-5.22,26.52-15.64,36.94c-10.43,10.43-22.96,15.64-37.61,15.64ZM3810.45,637.21v-332.82h85.87v332.82h-85.87Z" style="fill:#262626;"></path><path d="M4227.8,304.39h85.87v332.82h-85.87v-39.27c-25.74,32.4-61.91,48.59-108.5,48.59s-82.44-16.97-114.16-50.92c-31.73-33.95-47.59-75.55-47.59-124.81s15.86-90.86,47.59-124.81c31.72-33.95,69.78-50.92,114.16-50.92,46.59,0,82.76,16.2,108.5,48.59v-39.27ZM4069.38,538.37c17.31,17.54,39.27,26.29,65.9,26.29s48.7-8.76,66.23-26.29c17.53-17.53,26.29-40.04,26.29-67.56s-8.77-50.03-26.29-67.56c-17.54-17.53-39.61-26.29-66.23-26.29s-48.59,8.77-65.9,26.29c-17.31,17.54-25.96,40.05-25.96,67.56s8.65,50.04,25.96,67.56Z" style="fill:#262626;"></path><path d="M415.9,0C186.2,0,0,186.2,0,415.9s186.2,415.9,415.9,415.9,415.9-186.2,415.9-415.9S645.59,0,415.9,0ZM374.37,570.16c0,15.78-8.38,30.37-22,38.32l-52.43,30.62c-23.67,13.82-53.4-3.25-53.4-30.66V223.3c0-34.28,37.21-55.62,66.8-38.3l39.08,22.87c13.6,7.96,21.96,22.54,21.96,38.3v323.98ZM500,645.02l-79.27-65.28c-5.41-4.45-8.54-11.09-8.54-18.1v-81.97c0-18.01,19.46-29.29,35.09-20.35l72.06,41.21c5.67,3.24,9.73,8.7,11.2,15.06l22.9,98.79c0,27.42-29.77,44.49-53.44,30.64ZM645.19,441.16l-57.21,32.2c-12,6.76-26.67,6.74-38.66-.03l-119.36-67.42c-12.4-7-20.04-20.15-20-34.39l.19-61.32c.09-30.35,33.05-49.18,59.24-33.84l176.32,103.23c23.65,13.85,23.36,48.13-.52,61.58Z" style="fill:#1d1d1b;"></path></g></svg> 