<?xml version="1.0" encoding="UTF-8" standalone="no"?>
<!DOCTYPE svg PUBLIC "-//W3C//DTD SVG 1.1//EN" "http://www.w3.org/Graphics/SVG/1.1/DTD/svg11.dtd">
<svg width="100%" height="100%" viewBox="0 0 32 32" version="1.1" xmlns="http://www.w3.org/2000/svg" xmlns:xlink="http://www.w3.org/1999/xlink" xml:space="preserve" xmlns:serif="http://www.serif.com/" style="fill-rule:evenodd;clip-rule:evenodd;stroke-linejoin:round;stroke-miterlimit:2;">
    <g transform="matrix(0.038471,0,0,0.038471,0,0)">
        <path d="M415.9,0C186.2,0 0,186.2 0,415.9C0,645.6 186.2,831.8 415.9,831.8C645.6,831.8 831.8,645.6 831.8,415.9C831.8,186.2 645.59,0 415.9,0ZM374.37,570.16C374.37,585.94 365.99,600.53 352.37,608.48L299.94,639.1C276.27,652.92 246.54,635.85 246.54,608.44L246.54,223.3C246.54,189.02 283.75,167.68 313.34,185L352.42,207.87C366.02,215.83 374.38,230.41 374.38,246.17L374.38,570.15L374.37,570.16ZM500,645.02L420.73,579.74C415.32,575.29 412.19,568.65 412.19,561.64L412.19,479.67C412.19,461.66 431.65,450.38 447.28,459.32L519.34,500.53C525.01,503.77 529.07,509.23 530.54,515.59L553.44,614.38C553.44,641.8 523.67,658.87 500,645.02ZM645.19,441.16L587.98,473.36C575.98,480.12 561.31,480.1 549.32,473.33L429.96,405.91C417.56,398.91 409.92,385.76 409.96,371.52L410.15,310.2C410.24,279.85 443.2,261.02 469.39,276.36L645.71,379.59C669.36,393.44 669.07,427.72 645.19,441.17L645.19,441.16Z" style="fill:rgb(70,95,255);fill-rule:nonzero;"/>
    </g>
</svg>
